<svg id="Icons" height="512" viewBox="0 0 60 60" width="512" xmlns="http://www.w3.org/2000/svg"><path d="m53 40h3a3 3 0 0 1 3 3v6a3 3 0 0 1 -3 3h-3z" fill="#219cf7"/><path d="m53 32h3a3 3 0 0 1 3 3v6a3 3 0 0 1 -3 3h-3z" fill="#47d17f"/><path d="m53 24h3a3 3 0 0 1 3 3v6a3 3 0 0 1 -3 3h-3z" fill="#ea3d53"/><path d="m53 16h3a3 3 0 0 1 3 3v6a3 3 0 0 1 -3 3h-3z" fill="#eded5a"/><path d="m53 8h3a3 3 0 0 1 3 3v6a3 3 0 0 1 -3 3h-3z" fill="#219cf7"/><path d="m20 1v58h-12a2.006 2.006 0 0 1 -2-2v-54a2.006 2.006 0 0 1 2-2z" fill="#219cf7"/><path d="m54 7v46a6 6 0 0 1 -6 6h-28v-58h28a6 6 0 0 1 6 6z" fill="#e2e3ed"/><path d="m8.54 15a4 4 0 1 0 0-4z" fill="#237eb5"/><path d="m8.54 32a4 4 0 1 0 0-4z" fill="#237eb5"/><path d="m8.54 49a4 4 0 1 0 0-4z" fill="#237eb5"/><path d="m42.18 27.09a12.672 12.672 0 0 1 6.82 10.91v.01a4.573 4.573 0 0 1 -2.25 3.99c-1.75 1-4.75 2-9.75 2s-8-1-9.75-2a4.573 4.573 0 0 1 -2.25-3.99v-.01a12.672 12.672 0 0 1 6.82-10.91z" fill="#177de2"/><g fill="#e2e3ed"><rect height="4" rx="2" width="11" x="1" y="11"/><rect height="4" rx="2" width="11" x="1" y="28"/><rect height="4" rx="2" width="11" x="1" y="45"/></g><circle cx="37" cy="21" fill="#219cf7" r="8"/></svg>